<svg id="visual" viewBox="0 0 540 960" width="540" height="960" xmlns="http://www.w3.org/2000/svg" xmlns:xlink="http://www.w3.org/1999/xlink" version="1.1"><rect x="0" y="0" width="540" height="960" fill="#19274A"></rect><path d="M0 746L12.8 750C25.7 754 51.3 762 77 763.7C102.7 765.3 128.3 760.7 154 759C179.7 757.3 205.3 758.7 231.2 767.3C257 776 283 792 308.8 795.5C334.7 799 360.3 790 386 778.2C411.7 766.3 437.3 751.7 463 749.7C488.7 747.7 514.3 758.3 527.2 763.7L540 769L540 961L527.2 961C514.3 961 488.7 961 463 961C437.3 961 411.7 961 386 961C360.3 961 334.7 961 308.8 961C283 961 257 961 231.2 961C205.3 961 179.7 961 154 961C128.3 961 102.7 961 77 961C51.3 961 25.7 961 12.8 961L0 961Z" fill="#0e9fe2"></path><path d="M0 875L12.8 866.3C25.7 857.7 51.3 840.3 77 829.5C102.7 818.7 128.3 814.3 154 809.8C179.7 805.3 205.3 800.7 231.2 799.5C257 798.3 283 800.7 308.8 810.3C334.7 820 360.3 837 386 847.3C411.7 857.7 437.3 861.3 463 856.7C488.7 852 514.3 839 527.2 832.5L540 826L540 961L527.2 961C514.3 961 488.7 961 463 961C437.3 961 411.7 961 386 961C360.3 961 334.7 961 308.8 961C283 961 257 961 231.2 961C205.3 961 179.7 961 154 961C128.3 961 102.7 961 77 961C51.3 961 25.7 961 12.8 961L0 961Z" fill="#09a7ed"></path><path d="M0 887L12.8 887C25.7 887 51.3 887 77 883.3C102.7 879.7 128.3 872.3 154 873.8C179.7 875.3 205.3 885.7 231.2 894.5C257 903.3 283 910.7 308.8 913.3C334.7 916 360.3 914 386 913.7C411.7 913.3 437.3 914.7 463 913C488.7 911.3 514.3 906.7 527.2 904.3L540 902L540 961L527.2 961C514.3 961 488.7 961 463 961C437.3 961 411.7 961 386 961C360.3 961 334.7 961 308.8 961C283 961 257 961 231.2 961C205.3 961 179.7 961 154 961C128.3 961 102.7 961 77 961C51.3 961 25.7 961 12.8 961L0 961Z" fill="#03aff9"></path></svg>