<svg width="25" height="20" viewBox="0 0 25 20" fill="none" xmlns="http://www.w3.org/2000/svg">
<path d="M23.9917 18.457C24.6639 16.2467 25 14.008 25 11.7407C25 10.0127 24.815 8.46209 24.4451 7.08884C24.098 5.80015 23.5879 4.66768 22.915 3.69141C21.5251 1.6862 19.8047 0.683594 17.7539 0.683593C16.9336 0.683593 16.1873 0.848795 15.5151 1.1792C14.8543 1.5096 14.3018 1.95394 13.8574 2.51221C13.4131 3.07047 13.0143 3.7085 12.6611 4.42627C12.3079 5.15544 12.006 5.91878 11.7554 6.71631C11.5047 7.51383 11.2712 8.31136 11.0547 9.10889C10.8382 9.90641 10.616 10.6641 10.3882 11.3818C10.1603 12.111 9.90967 12.7547 9.63623 13.313C9.37419 13.8713 9.04948 14.3156 8.66211 14.646C8.27474 14.9764 7.8361 15.1416 7.34619 15.1416C6.46891 15.1416 5.76253 14.5947 5.22705 13.501C4.69157 12.4186 4.42383 11.0002 4.42383 9.2456C4.42383 7.37711 4.93652 5.00163 5.96191 2.11914L6.21826 1.45264L2.08252 -1.00175e-06L1.84326 0.632323C1.29639 2.03369 0.874838 3.361 0.578613 4.61426C0.293783 5.86751 0.151367 7.27458 0.151367 8.83545C0.151367 10.3963 0.299478 11.8034 0.595703 13.0566C0.90332 14.3213 1.29639 15.3581 1.7749 16.167C2.26481 16.9873 2.83447 17.6709 3.48389 18.2178C4.1333 18.776 4.78841 19.1691 5.44922 19.397C6.12142 19.6362 6.79932 19.7559 7.48291 19.7559C8.54248 19.7559 9.47672 19.4881 10.2856 18.9526C11.106 18.4285 11.7611 17.745 12.251 16.9019C12.7409 16.0588 13.1738 15.1245 13.5498 14.0991C13.9258 13.0737 14.2562 12.0483 14.541 11.0229C14.8258 10.009 15.1107 9.0804 15.3955 8.2373C15.6917 7.39421 16.0506 6.70492 16.4722 6.16943C16.8937 5.64534 17.3836 5.3833 17.9419 5.3833C18.7964 5.3833 19.4971 5.97575 20.0439 7.16064C20.5908 8.35693 20.8643 9.79248 20.8643 11.4673C20.8643 13.1649 20.5794 15.0448 20.0098 17.1069L19.8218 17.7563L23.7866 19.1577L23.9917 18.457Z" fill="#082756"/>
</svg>
